<svg width="96" height="45" viewBox="0 0 96 45" fill="none" xmlns="http://www.w3.org/2000/svg">
<path d="M74.2162 44.52C72.4283 44.52 70.9167 43.9674 69.6813 42.8621C68.446 41.7568 67.8284 40.3427 67.8284 38.6198C67.8284 36.3442 69.145 34.605 71.7781 33.4022C70.1202 32.557 69.2912 31.2729 69.2912 29.55C69.2912 28.4772 69.7138 27.5507 70.5591 26.7705C71.4043 25.9578 72.4933 25.3889 73.8261 25.0638C71.323 23.5359 70.0714 21.2279 70.0714 18.1396C70.0714 15.4414 71.0467 13.3121 72.9972 11.7517C74.9802 10.1913 77.7921 9.41112 81.4331 9.41112C82.1933 9.41112 82.9152 9.44695 83.599 9.51862C85.5332 9.72133 87.8289 9.68771 88.6986 7.94825C89.3001 6.78827 90.4406 5.70518 91.7472 5.70518H92.6484C94.4528 5.70518 96.0484 7.25796 95.2424 8.87229C95.0296 9.29853 94.7664 9.68944 94.4526 10.045C93.1394 11.5393 92.2578 14.3087 92.6596 16.2571C92.7822 16.8515 92.8434 17.479 92.8434 18.1396C92.8434 20.8378 91.8844 22.967 89.9665 24.5274C88.081 26.0878 85.3666 26.868 81.8232 26.868H77.9222C77.337 26.868 76.8657 26.9981 76.5081 27.2581C76.183 27.5182 76.0204 27.8758 76.0204 28.3309C76.0204 28.721 76.1667 29.0623 76.4593 29.3549C76.7519 29.615 77.142 29.745 77.6296 29.745H86.8457C88.7312 29.745 90.3078 30.3789 91.5756 31.6467C92.8434 32.9146 93.4774 34.5725 93.4774 36.6205C93.4774 38.1809 93.0548 39.5625 92.2095 40.7653C91.3643 41.9681 90.2103 42.8946 88.7474 43.5448C87.2845 44.1949 85.6754 44.52 83.9199 44.52H74.2162ZM81.4331 22.3331C82.9935 22.3331 84.18 21.9755 84.9927 21.2604C85.8054 20.5127 86.2118 19.4724 86.2118 18.1396C86.2118 16.8067 85.8054 15.7827 84.9927 15.0676C84.18 14.3199 82.9935 13.946 81.4331 13.946C79.8727 13.946 78.6861 14.3199 77.8734 15.0676C77.0932 15.7827 76.7031 16.8067 76.7031 18.1396C76.7031 19.4724 77.0932 20.5127 77.8734 21.2604C78.6861 21.9755 79.8727 22.3331 81.4331 22.3331ZM83.8224 39.8876C84.6676 39.8876 85.3666 39.6763 85.9192 39.2537C86.4718 38.8311 86.7482 38.2784 86.7482 37.5957C86.7482 36.8806 86.4881 36.3279 85.968 35.9378C85.4803 35.5477 84.8627 35.3527 84.115 35.3527H77.142C76.4268 35.3527 75.8091 35.564 75.289 35.9866C74.8014 36.4092 74.5576 36.9456 74.5576 37.5957C74.5576 38.2784 74.8014 38.8311 75.289 39.2537C75.7766 39.6763 76.3943 39.8876 77.142 39.8876H83.8224Z" fill="#333E63"/>
<path d="M47.8359 44.52C46.0479 44.52 44.5363 43.9674 43.301 42.8621C42.0657 41.7568 41.448 40.3427 41.448 38.6198C41.448 36.3442 42.7646 34.605 45.3977 33.4022C43.7398 32.557 42.9109 31.2729 42.9109 29.55C42.9109 28.4772 43.3335 27.5507 44.1787 26.7705C45.0239 25.9578 46.1129 25.3889 47.4458 25.0638C44.9426 23.5359 43.6911 21.2279 43.6911 18.1396C43.6911 15.4414 44.6663 13.3121 46.6168 11.7517C48.5998 10.1913 51.4118 9.41112 55.0527 9.41112C55.8129 9.41112 56.5349 9.44695 57.2186 9.51862C59.1528 9.72134 61.4485 9.68771 62.3183 7.94825C62.9197 6.78827 64.0602 5.70518 65.3668 5.70518H66.268C68.0724 5.70518 69.6681 7.25796 68.8621 8.87229C68.6493 9.29853 68.386 9.68945 68.0722 10.045C66.7591 11.5393 65.8775 14.3088 66.2792 16.2571C66.4018 16.8515 66.4631 17.479 66.4631 18.1396C66.4631 20.8378 65.5041 22.967 63.5861 24.5274C61.7006 26.0878 58.9862 26.868 55.4428 26.868H51.5418C50.9567 26.868 50.4853 26.9981 50.1277 27.2581C49.8026 27.5182 49.6401 27.8758 49.6401 28.3309C49.6401 28.721 49.7864 29.0623 50.0789 29.3549C50.3715 29.615 50.7616 29.745 51.2492 29.745H60.4653C62.3508 29.745 63.9274 30.3789 65.1953 31.6467C66.4631 32.9146 67.097 34.5725 67.097 36.6205C67.097 38.1809 66.6744 39.5625 65.8292 40.7653C64.9839 41.9681 63.8299 42.8946 62.367 43.5448C60.9042 44.1949 59.295 44.52 57.5396 44.52H47.8359ZM55.0527 22.3331C56.6131 22.3331 57.7996 21.9755 58.6123 21.2604C59.425 20.5127 59.8314 19.4724 59.8314 18.1396C59.8314 16.8067 59.425 15.7827 58.6123 15.0676C57.7996 14.3199 56.6131 13.946 55.0527 13.946C53.4923 13.946 52.3057 14.3199 51.493 15.0676C50.7128 15.7827 50.3227 16.8067 50.3227 18.1396C50.3227 19.4724 50.7128 20.5127 51.493 21.2604C52.3057 21.9755 53.4923 22.3331 55.0527 22.3331ZM57.442 39.8876C58.2873 39.8876 58.9862 39.6763 59.5388 39.2537C60.0915 38.8311 60.3678 38.2784 60.3678 37.5957C60.3678 36.8806 60.1077 36.3279 59.5876 35.9378C59.1 35.5477 58.4823 35.3527 57.7346 35.3527H50.7616C50.0464 35.3527 49.4288 35.564 48.9086 35.9866C48.421 36.4092 48.1772 36.9456 48.1772 37.5957C48.1772 38.2784 48.421 38.8311 48.9086 39.2537C49.3963 39.6763 50.0139 39.8876 50.7616 39.8876H57.442Z" fill="#333E63"/>
<path d="M32.8015 3.55966C32.8015 1.80916 34.2206 0.390106 35.9711 0.390106H36.3124C38.0629 0.390106 39.482 1.80916 39.482 3.55966C39.482 5.31015 38.0629 6.72921 36.3124 6.72921H35.9711C34.2206 6.72921 32.8015 5.31015 32.8015 3.55966ZM32.8015 13.3365C32.8015 11.4918 34.297 9.99628 36.1417 9.99628C37.9865 9.99628 39.482 11.4918 39.482 13.3365V32.305C39.482 34.1498 37.9865 35.6453 36.1417 35.6453C34.297 35.6453 32.8015 34.1498 32.8015 32.305V13.3365Z" fill="#333E63"/>
<path d="M15.3606 21.6017C15.3606 15.5423 20.2727 10.6302 26.3321 10.6302H28.0384C29.8158 10.6302 31.2567 12.0711 31.2567 13.8485C31.2567 15.6259 29.8158 17.0668 28.0384 17.0668H26.3321C23.9622 17.0668 22.041 18.988 22.041 21.3579V32.305C22.041 34.1498 20.5456 35.6453 18.7008 35.6453C16.8561 35.6453 15.3606 34.1498 15.3606 32.305V21.6017Z" fill="#333E63"/>
<path d="M3.65717 16.2704C3.65717 15.8215 3.29331 15.4577 2.84447 15.4577H2.73069C1.22257 15.4577 0 14.2351 0 12.727C0 11.2188 1.22257 9.99627 2.73069 9.99627H2.84447C3.29331 9.99627 3.65717 9.63241 3.65717 9.18357V7.07054C3.65717 5.05503 4.19356 3.38085 5.26633 2.04802C6.3391 0.682672 8.1108 0 10.5814 0C11.2641 0 12.0118 0.0812705 12.8245 0.243811C12.8837 0.255656 12.9423 0.267587 13.0001 0.279605C14.1381 0.516047 14.8725 1.55751 14.8725 2.71986V3.02326C14.8725 4.3698 13.7809 5.46138 12.4344 5.46138C11.0365 5.46138 10.3376 6.16031 10.3376 7.55816V8.52827C10.3376 9.33903 10.9949 9.99627 11.8056 9.99627H14.5799C16.0881 9.99627 17.3106 11.2188 17.3106 12.727C17.3106 14.2351 16.0881 15.4577 14.5799 15.4577H11.8056C10.9949 15.4577 10.3376 16.1149 10.3376 16.9257V32.305C10.3376 34.1498 8.84214 35.6453 6.99739 35.6453C5.15264 35.6453 3.65717 34.1498 3.65717 32.305V16.2704Z" fill="#333E63"/>
</svg>
