<svg width="32" height="32" viewBox="0 0 32 32" fill="none" xmlns="http://www.w3.org/2000/svg">
<g clip-path="url(#clip0_445_4187)">
<path d="M16 32.0021C24.8366 32.0021 32 24.8387 32 16.0022C32 7.16563 24.8366 0.00219727 16 0.00219727C7.16344 0.00219727 0 7.16563 0 16.0022C0 24.8387 7.16344 32.0021 16 32.0021Z" fill="#1977F3"/>
<path d="M22.2281 20.6283L22.9369 16.0023H18.4998V13.0007C18.4998 11.7362 19.1185 10.5009 21.1076 10.5009H23.1259V6.56336C23.1259 6.56336 21.2943 6.25061 19.5438 6.25061C15.8897 6.25061 13.5002 8.46464 13.5002 12.4765V16.0023H9.43665V20.6283H13.5002V31.8087C14.3147 31.937 15.1495 32.0022 16 32.0022C16.8505 32.0022 17.6853 31.9347 18.4998 31.8087V20.6283H22.2281Z" fill="white"/>
</g>
<defs>
<clipPath id="clip0_445_4187">
<rect width="32" height="32" fill="white"/>
</clipPath>
</defs>
</svg>
