<svg width="32" height="32" viewBox="0 0 32 32" fill="none" xmlns="http://www.w3.org/2000/svg">
<path d="M15.5068 25.4667C14.9467 25.348 14.4266 25.6647 14.3066 26.2189C13.9466 27.7231 13.5465 29.1482 13.0665 30.4942C12.9065 31.0088 13.1465 31.563 13.7066 31.7609C13.8266 31.8005 13.9066 31.8005 14.0266 31.8005C14.4266 31.8005 14.8267 31.5234 14.9867 31.1276C15.4668 29.742 15.9068 28.2378 16.2668 26.6543C16.3869 26.1001 16.0268 25.5855 15.5068 25.4667Z" fill="#000AFF"/>
<path d="M17.7069 13.3138C17.6669 12.7595 17.1869 12.3241 16.6668 12.3637C16.1068 12.4033 15.6667 12.8387 15.7067 13.3929C15.7067 13.4325 15.8667 17.5099 14.9866 22.8145C14.9066 23.3687 15.2667 23.8833 15.8267 23.9625C15.8667 23.9625 15.9468 23.9625 15.9868 23.9625C16.4668 23.9625 16.9069 23.6062 16.9869 23.1311C17.867 17.5891 17.7069 13.4721 17.7069 13.3138Z" fill="#000AFF"/>
<path d="M29.7235 22.4548C29.7582 21.9002 29.3408 21.4055 28.8201 21.3765C28.2597 21.3421 27.7651 21.7159 27.7304 22.2705C27.7251 22.3097 27.3367 25.5803 25.7528 30.7223C25.5991 31.2611 25.887 31.8185 26.4314 31.9705C26.4711 31.9758 26.5504 31.9863 26.59 31.9915C27.0658 32.0546 27.5498 31.7593 27.6928 31.299C29.3086 25.9215 29.7023 22.6117 29.7235 22.4548Z" fill="#000AFF"/>
<path d="M25.3231 23.6563C25.3578 23.1018 24.9404 22.6071 24.4196 22.578C23.8592 22.5437 23.3646 22.9175 23.33 23.472C23.3246 23.5113 22.7923 26.6939 21.7524 30.3404C21.5987 30.8792 21.8866 31.4366 22.431 31.5886C22.4707 31.5939 22.55 31.6044 22.5896 31.6096C23.0655 31.6727 23.5494 31.3774 23.6924 30.9171C24.6356 27.8815 25.3018 23.8133 25.3231 23.6563Z" fill="#000AFF"/>
<path d="M20.8672 15.4118C20.3072 15.4118 19.8671 15.8077 19.8271 16.3619C19.7071 19.7663 19.147 25.0313 17.3868 30.6129C17.2268 31.1275 17.5068 31.6818 18.0269 31.8401C18.1069 31.8797 18.2269 31.8797 18.3069 31.8797C18.747 31.8797 19.147 31.6026 19.267 31.1671C21.1072 25.3875 21.6273 19.9642 21.7873 16.4015C21.8673 15.8868 21.4273 15.4514 20.8672 15.4118Z" fill="#000AFF"/>
<path d="M16.6268 8.24668C16.5868 8.24668 16.5068 8.24668 16.4668 8.24668C15.1066 8.32585 13.8265 8.88006 12.8664 9.90931C11.9463 10.899 11.4662 12.2053 11.5062 13.5908C11.5462 14.4221 11.6262 21.9039 9.02593 29.3066C8.82591 29.8212 9.10594 30.3754 9.626 30.5733C9.74601 30.6129 9.82602 30.6129 9.94603 30.6129C10.3461 30.6129 10.7461 30.3754 10.9061 29.94C13.5464 22.3394 13.5064 14.9368 13.4664 13.4721C13.3864 11.7303 14.7466 10.2656 16.4668 10.1864C18.267 10.1468 19.7071 11.4532 19.7871 13.195C19.8271 13.7492 20.3072 14.1846 20.8272 14.145C21.3873 14.1054 21.7874 13.67 21.7874 13.1158C21.7473 10.3448 19.4671 8.24668 16.6268 8.24668Z" fill="#000AFF"/>
<path d="M9.34598 13.6304C9.18597 9.67178 12.3463 6.26736 16.3468 6.10901C20.4272 5.95067 23.8276 8.99881 24.0276 13.0366C24.0276 13.1554 24.1876 15.966 23.7876 20.1621C23.7476 20.7163 24.1476 21.1914 24.6677 21.231C24.7077 21.231 24.7477 21.231 24.7477 21.231C25.2678 21.231 25.7078 20.8351 25.7478 20.3205C26.1078 16.8369 26.0678 13.9867 26.0278 12.8783C25.7878 7.81122 21.5473 3.97135 16.2668 4.1297C11.1062 4.36721 7.10574 8.68212 7.34576 13.7492V13.7888C7.34576 14.0659 7.38577 15.7285 7.14574 18.1037C7.10574 18.6579 7.50578 19.1329 8.06584 19.1725C8.6259 19.2121 9.10596 18.8162 9.14596 18.262C9.34598 16.0452 9.38599 14.1846 9.34598 13.6304Z" fill="#000AFF"/>
<path d="M7.90582 20.558C7.34576 20.4789 6.82571 20.8351 6.7457 21.3893C6.38566 23.4874 5.94561 25.4271 5.38555 27.2085C5.22553 27.7231 5.50556 28.2774 6.02562 28.4357C6.14563 28.4753 6.22564 28.4753 6.34565 28.4753C6.7857 28.4753 7.14574 28.1982 7.30576 27.8023C7.90582 25.9418 8.38588 23.8833 8.74592 21.706C8.82593 21.1518 8.46589 20.6372 7.90582 20.558Z" fill="#000AFF"/>
<path d="M10.9462 3.45675C12.5464 2.54627 14.3466 2.03165 16.1868 1.95247C22.6275 1.67537 27.9081 6.46531 28.1881 12.8387C28.2281 13.8679 28.2681 16.0056 28.0681 18.8954C28.0281 19.4496 28.4281 19.9246 28.9882 19.9642C29.0282 19.9642 29.0282 19.9642 29.0682 19.9642C29.5882 19.9642 30.0283 19.5684 30.0683 19.0537C30.3083 16.0452 30.2683 13.8284 30.2283 12.7595C29.8683 5.31731 23.7076 -0.303943 16.1468 0.0127468C13.9465 0.0523331 11.8263 0.685713 9.94608 1.75454C9.46602 2.03165 9.30601 2.62544 9.58604 3.10048C9.86607 3.57551 10.4661 3.73386 10.9462 3.45675Z" fill="#000AFF"/>
<path d="M8.50591 5.31731C8.90596 4.92145 8.90596 4.28807 8.50591 3.93179C8.10587 3.53593 7.4658 3.53593 7.10576 3.93179C4.46546 6.58407 3.0253 10.1864 3.18532 13.8679C3.18532 13.9075 3.30534 18.6183 2.02519 23.8041C1.90518 24.3187 2.22522 24.8729 2.74527 24.9917C2.82528 24.9917 2.90529 25.0313 2.9853 25.0313C3.42535 25.0313 3.8654 24.7146 3.94541 24.2791C5.30556 18.7371 5.14554 13.7888 5.14554 13.7888C5.06553 10.6615 6.26566 7.57373 8.50591 5.31731Z" fill="#000AFF"/>
</svg>
