<svg width="32" height="32" viewBox="0 0 32 32" fill="none" xmlns="http://www.w3.org/2000/svg">
<path d="M31.66 16.36C31.66 15.3067 31.5666 14.3067 31.4066 13.3334H16.34V19.3467H24.9666C24.58 21.32 23.4466 22.9867 21.7666 24.12V28.12H26.9133C29.9266 25.3334 31.66 21.2267 31.66 16.36Z" fill="#4285F4"/>
<path d="M16.3399 32C20.6599 32 24.2733 30.56 26.9133 28.12L21.7666 24.12C20.3266 25.08 18.4999 25.6667 16.3399 25.6667C12.1666 25.6667 8.63327 22.8533 7.3666 19.0533H2.05994V23.1733C4.6866 28.4 10.0866 32 16.3399 32Z" fill="#34A853"/>
<path d="M7.36663 19.0533C7.0333 18.0933 6.85996 17.0667 6.85996 16C6.85996 14.9333 7.04663 13.9067 7.36663 12.9467V8.82666H2.05996C0.966631 10.9867 0.339966 13.4133 0.339966 16C0.339966 18.5867 0.966631 21.0133 2.05996 23.1733L7.36663 19.0533Z" fill="#FBBC05"/>
<path d="M16.3399 6.33333C18.6999 6.33333 20.8066 7.14667 22.4733 8.73334L27.0333 4.17333C24.2733 1.58667 20.6599 0 16.3399 0C10.0866 0 4.6866 3.6 2.05994 8.82667L7.36661 12.9467C8.63327 9.14667 12.1666 6.33333 16.3399 6.33333Z" fill="#EA4335"/>
</svg>
