<svg width="24" height="24" viewBox="0 0 24 24" fill="none" xmlns="http://www.w3.org/2000/svg">
<path d="M18.32 2H4.88C3.24793 2 2 3.24793 2 4.88V14.48C2 16.1121 3.24793 17.36 4.88 17.36H8.14397L6.89603 19.856C6.60795 20.4321 7.08796 21.2 7.76 21.2H15.44C16.1121 21.2 16.5921 20.4321 16.304 19.856L15.056 17.36H18.32C19.9521 17.36 21.2 16.1121 21.2 14.48V4.88C21.2 3.24793 19.9521 2 18.32 2ZM13.904 19.28H9.296L10.256 17.36H12.9439L13.904 19.28ZM19.28 14.48C19.28 15.056 18.896 15.44 18.32 15.44H4.88C4.30397 15.44 3.92 15.056 3.92 14.48V4.88C3.92 4.30397 4.30397 3.92 4.88 3.92H18.32C18.896 3.92 19.28 4.30397 19.28 4.88V14.48Z" fill="black"/>
</svg>
