<svg width="32" height="32" viewBox="0 0 32 32" fill="none" xmlns="http://www.w3.org/2000/svg">
<path d="M2.29289 9.94975C2.10536 10.1373 2 10.3916 2 10.6569C2 10.9221 2.10536 11.1764 2.29289 11.364L6.94975 16.0208C7.38845 16.4592 7.95225 16.7509 8.56356 16.8557C9.17487 16.9605 9.80363 16.8732 10.3633 16.6059L19.8492 26.0919C20.4119 26.6545 21.1749 26.9706 21.9706 26.9706C22.7662 26.9706 23.5293 26.6545 24.0919 26.0919C24.6545 25.5293 24.9706 24.7662 24.9706 23.9706C24.9706 23.1749 24.6545 22.4119 24.0919 21.8492L14.6059 12.3633C14.8732 11.8036 14.9605 11.1749 14.8557 10.5636C14.7509 9.95225 14.4592 9.38845 14.0208 8.94975L9.36396 4.29289C9.17642 4.10536 8.92207 4 8.65685 4C8.39164 4 8.13728 4.10536 7.94975 4.29289C7.76221 4.48043 7.65685 4.73478 7.65685 5C7.65685 5.26522 7.76221 5.51957 7.94975 5.70711L10.4853 8.24264L9.07107 9.65685L6.53553 7.12132C6.348 6.93378 6.09364 6.82843 5.82843 6.82843C5.56321 6.82843 5.30886 6.93378 5.12132 7.12132C4.93378 7.30886 4.82843 7.56321 4.82843 7.82843C4.82843 8.09364 4.93378 8.348 5.12132 8.53553L7.65685 11.0711L6.24264 12.4853L3.70711 9.94975C3.51957 9.76221 3.26522 9.65685 3 9.65685C2.73478 9.65685 2.48043 9.76221 2.29289 9.94975ZM11.8995 9.65685L12.6066 10.364C12.7941 10.5515 12.8995 10.8059 12.8995 11.0711C12.8995 11.3363 12.7941 11.5906 12.6066 11.7782C12.4191 11.9657 12.3137 12.2201 12.3137 12.4853C12.3137 12.7505 12.4191 13.0049 12.6066 13.1924L22.6777 23.2635C22.8652 23.451 22.9706 23.7053 22.9706 23.9706C22.9706 24.2358 22.8652 24.4901 22.6777 24.6777C22.4901 24.8652 22.2358 24.9706 21.9706 24.9706C21.7053 24.9706 21.451 24.8652 21.2635 24.6777L11.1924 14.6066C11.0049 14.4191 10.7505 14.3137 10.4853 14.3137C10.2201 14.3137 9.96571 14.4191 9.77817 14.6066C9.59064 14.7941 9.33628 14.8995 9.07107 14.8995C8.80585 14.8995 8.5515 14.7941 8.36396 14.6066L7.65685 13.8995L11.8995 9.65685Z" fill="#333E63"/>
<path d="M12.4141 16.6567L6.87866 22.1924C6.31616 22.7549 6 23.5181 6 24.3137C6 25.1094 6.31616 25.8723 6.87866 26.4351C7.44141 26.9976 8.20435 27.3137 9 27.3137C9.79565 27.3137 10.5586 26.9976 11.1213 26.4351L16.6567 20.8994L15.2427 19.4854L9.70703 25.0208C9.65601 25.0718 9.6001 25.1167 9.54053 25.155C9.38062 25.2578 9.19312 25.3137 9 25.3137C8.73486 25.3137 8.48047 25.2083 8.29297 25.0208C8.22314 24.9509 8.16479 24.8718 8.1189 24.7864C8.0415 24.6423 8 24.4802 8 24.3137C8 24.0486 8.10547 23.7942 8.29297 23.6067L13.8284 18.071L12.4141 16.6567Z" fill="#333E63"/>
<path d="M17.4854 17.2427L18.8994 18.6567L21.4995 16.0569C22.2644 16.1663 23.0444 16.0967 23.7781 15.8538C24.512 15.6108 25.1792 15.2012 25.728 14.6567L27.8491 12.5356C28.7869 11.5979 29.3137 10.3262 29.3137 9C29.3137 7.67383 28.7869 6.4021 27.8491 5.46436C26.9116 4.52686 25.6399 4 24.3137 4C22.9875 4 21.7158 4.52686 20.7781 5.46436L18.6567 7.58569C18.1125 8.13452 17.7029 8.80176 17.46 9.5354C17.217 10.2693 17.1475 11.0493 17.2568 11.8142L14.6567 14.4141L16.071 15.8284L19.0493 12.8501C19.1731 12.7261 19.2622 12.5715 19.3076 12.4021C19.3528 12.2327 19.3528 12.0544 19.3074 11.885C19.1685 11.3794 19.166 10.8462 19.3003 10.3396C19.4343 9.83276 19.7002 9.37061 20.071 9L22.1924 6.87866C22.7549 6.31616 23.5181 6 24.3137 6C25.1094 6 25.8723 6.31616 26.4351 6.87866C26.9976 7.44141 27.3137 8.20435 27.3137 9C27.3137 9.79565 26.9976 10.5586 26.4351 11.1213L24.3137 13.2427C23.9431 13.6135 23.481 13.8794 22.9741 14.0134C22.4675 14.1477 21.9341 14.1453 21.4287 14.0063C21.3315 13.9802 21.2314 13.9692 21.1318 13.9729C21.0579 13.9758 20.9839 13.9868 20.9116 14.0061C20.7422 14.0515 20.5876 14.1406 20.4636 14.2644L17.4854 17.2427Z" fill="#333E63"/>
</svg>
