<svg width="32" height="33" viewBox="0 0 32 33" fill="none" xmlns="http://www.w3.org/2000/svg">
<path d="M21.4778 17.3195C21.4898 17.2633 21.4971 17.2052 21.4971 17.1451V6.59177C21.4971 6.59177 21.4847 1.9144 21.4813 1.89803C21.3922 1.48854 20.9998 1.19377 20.5873 1.25932C20.5756 1.26114 7.89847 3.88016 7.89847 3.88016C7.53 3.95641 7.26485 4.28919 7.26485 4.6759V16.6092C6.63967 16.1421 5.87309 15.8633 5.04118 15.8633C2.94741 15.8633 1.25 17.6091 1.25 19.7626C1.25 21.9161 2.94741 23.6617 5.04118 23.6617C7.07761 23.6617 8.73435 22.009 8.82375 19.937C8.8357 19.8805 8.843 19.8225 8.843 19.7624L8.84322 9.87211L19.9191 7.58091V13.9924C19.2939 13.5253 18.5273 13.2465 17.6954 13.2465C15.6017 13.2465 13.9042 14.9923 13.9042 17.1458C13.9042 19.2993 15.6017 21.045 17.6954 21.045C19.7321 21.045 21.3886 19.3915 21.4778 17.3195ZM5.04132 22.0387C3.82105 22.0387 2.82847 21.0176 2.82847 19.7627C2.82847 18.5076 3.82122 17.4867 5.04132 17.4867C6.26159 17.4867 7.25417 18.5078 7.25417 19.7627C7.25439 21.0178 6.26159 22.0387 5.04132 22.0387ZM8.84332 8.21579V5.34072L19.9192 3.04975V5.92459L8.84332 8.21579ZM17.6955 19.4212C16.4753 19.4212 15.4827 18.4001 15.4827 17.1452C15.4827 15.8901 16.4754 14.8692 17.6955 14.8692C18.9158 14.8692 19.9084 15.8903 19.9084 17.1452C19.9086 18.4001 18.9158 19.4212 17.6955 19.4212Z" fill="#333E63"/>
<path d="M28.159 13.1642C27.2563 12.3585 26.4043 11.3694 26.0115 10.187C25.9075 9.87398 25.8555 9.55828 25.8444 9.22824C25.8349 8.9453 25.7276 8.68195 25.4912 8.52013C25.2841 8.37833 25.0099 8.34623 24.7771 8.43682C24.4064 8.58091 24.2541 8.97355 24.2661 9.35528L24.2663 25.1915C23.6427 24.728 22.879 24.4517 22.0506 24.4517C19.9569 24.4517 18.2594 26.1976 18.2594 28.3511C18.2594 30.5046 19.9569 32.2502 22.0506 32.2502C24.1256 32.2502 25.8086 30.535 25.8389 28.4084L25.8444 13.0489C26.191 13.4818 26.6113 13.932 27.1249 14.3907C28.8241 15.907 29.6808 17.1494 29.6715 18.0836C29.6653 18.7052 29.2758 19.3136 28.4085 20.0559C28.0737 20.3425 28.0281 20.8546 28.3067 21.1988C28.4627 21.3918 28.6873 21.4915 28.9137 21.4915C29.0917 21.4915 29.2705 21.43 29.4181 21.3037C30.1973 20.6368 31.235 19.579 31.2498 18.1004C31.2644 16.6277 30.2825 15.0594 28.159 13.1642ZM22.0506 30.6267C20.8303 30.6267 19.8377 29.6057 19.8377 28.3508C19.8377 27.0957 20.8305 26.0748 22.0506 26.0748C23.2709 26.0748 24.2634 27.0958 24.2634 28.3508C24.2634 29.6056 23.2707 30.6267 22.0506 30.6267Z" fill="#333E63"/>
<path fill-rule="evenodd" clip-rule="evenodd" d="M20.5481 1.01241C21.1041 0.92404 21.611 1.3187 21.7256 1.84481L21.7264 1.84834C21.728 1.85695 21.7298 1.86978 21.7302 1.874L21.7309 1.88235L21.7312 1.88949L21.7314 1.89653L21.7317 1.90968L21.7321 1.95148L21.733 2.10313C21.7336 2.23277 21.7344 2.41697 21.7352 2.6374C21.7368 3.07829 21.7387 3.66457 21.7404 4.25028L21.7471 6.59025L21.7471 17.1451C21.7471 17.2175 21.7391 17.2861 21.7267 17.3502C21.6222 19.5393 19.8667 21.2949 17.6954 21.2949C15.457 21.2949 13.6542 19.4307 13.6542 17.1458C13.6542 14.8609 15.457 12.9965 17.6954 12.9965C18.4139 12.9965 19.0862 13.1913 19.6691 13.5284V7.88791L9.09322 10.0757L9.093 19.7624C9.093 19.8348 9.08505 19.9034 9.07261 19.9676C8.96805 22.1568 7.21218 23.9117 5.04118 23.9117C2.80278 23.9117 1 22.0475 1 19.7626C1 17.4777 2.80276 15.6132 5.04118 15.6132C5.75961 15.6132 6.43196 15.808 7.01485 16.1452V4.67589C7.01485 4.17531 7.35873 3.73654 7.84781 3.63533L7.89847 3.88016C7.84789 3.63533 7.84771 3.63535 7.84781 3.63533L14.5538 2.25C17.5673 1.6275 20.4885 1.02404 20.5481 1.01241ZM7.94831 4.12096L7.94914 4.12496C7.70127 4.17625 7.51485 4.40304 7.51485 4.67589V17.108L7.11522 16.8094C6.53059 16.3727 5.81592 16.1132 5.04118 16.1132C3.09207 16.1132 1.5 17.7405 1.5 19.7626C1.5 21.7847 3.09205 23.4117 5.04118 23.4117C6.93648 23.4117 8.49003 21.8718 8.57398 19.9262L8.57487 19.9054L8.57917 19.8852C8.58819 19.8425 8.593 19.8021 8.593 19.7623L8.59323 9.66852L20.1691 7.27389V14.4912L19.7695 14.1927C19.1848 13.7559 18.4702 13.4965 17.6954 13.4965C15.7463 13.4965 14.1542 15.1237 14.1542 17.1458C14.1542 19.1679 15.7463 20.7949 17.6954 20.7949C19.5909 20.7949 21.1443 19.2544 21.228 17.3087L21.2289 17.2879L21.2333 17.2675C21.2422 17.2253 21.2471 17.1849 21.2471 17.1451V6.59237L21.2405 4.25178C21.2387 3.6661 21.2368 3.07996 21.2352 2.63924C21.2344 2.41887 21.2336 2.23495 21.233 2.10567L21.2321 1.95537L21.2318 1.9292C21.1593 1.64866 20.8887 1.46455 20.6265 1.50621C20.6278 1.50601 19.6845 1.7008 18.3109 1.98451C17.1699 2.22017 15.7314 2.51729 14.2891 2.81524L7.94914 4.12496C7.94911 4.12496 7.94915 4.12495 7.94831 4.12096ZM20.1692 2.74274V6.12815L8.59332 8.52278V5.13712L20.1692 2.74274ZM9.09332 5.54429V7.90876L19.6692 5.721V3.35674L9.09332 5.54429ZM24.6864 8.20383C24.9967 8.08306 25.3577 8.12572 25.6324 8.31383C25.9516 8.53236 26.0829 8.88085 26.0943 9.21985C26.1046 9.52831 26.153 9.82005 26.2487 10.1081C26.6215 11.2302 27.4363 12.184 28.3255 12.9777C30.4576 14.8805 31.5156 16.5141 31.4998 18.1029C31.4838 19.7008 30.364 20.8232 29.5807 21.4936C29.3867 21.6597 29.1498 21.7415 28.9137 21.7415C28.6136 21.7415 28.3168 21.609 28.1123 21.3559C27.7493 20.9074 27.8075 20.2413 28.2459 19.866C29.1007 19.1344 29.4164 18.5891 29.4215 18.0811C29.4254 17.6883 29.2456 17.1956 28.8331 16.5974C28.4232 16.0029 27.8 15.3282 26.9585 14.5772C26.6364 14.2896 26.3498 14.0048 26.0942 13.7249L26.0889 28.4085L26.0889 28.412C26.0567 30.6682 24.2692 32.5002 22.0506 32.5002C19.8122 32.5002 18.0094 30.636 18.0094 28.3511C18.0094 26.0662 19.8122 24.2017 22.0506 24.2017C22.7657 24.2017 23.4353 24.3946 24.0163 24.7289L24.0161 9.35902C24.0036 8.92333 24.1782 8.40145 24.6864 8.20383ZM25.35 8.72641C25.2105 8.6309 25.023 8.60937 24.8678 8.66979C24.6363 8.75976 24.5057 9.02051 24.516 9.34745L24.5162 9.35527L24.5163 25.6887L24.1172 25.3921C23.5341 24.9588 22.8221 24.7017 22.0506 24.7017C20.1015 24.7017 18.5094 26.3289 18.5094 28.3511C18.5094 30.3731 20.1015 32.0002 22.0506 32.0002C23.9814 32.0002 25.5596 30.4027 25.5889 28.4065C25.5889 28.4059 25.5889 28.4054 25.5889 28.4048L25.5947 12.3368L26.0396 12.8926C26.3773 13.3145 26.7879 13.7546 27.2914 14.2041C28.1491 14.9695 28.8038 15.6742 29.2447 16.3135C29.683 16.9491 29.9269 17.5446 29.9215 18.086C29.9142 18.8213 29.4509 19.4928 28.5711 20.2458C28.3399 20.4436 28.3069 20.8017 28.501 21.0414C28.6085 21.1744 28.7611 21.2415 28.9137 21.2415C29.0335 21.2415 29.1543 21.2004 29.2555 21.1138C30.0306 20.4504 30.9862 19.4572 30.9999 18.0979C31.0133 16.7413 30.1074 15.2382 27.9926 13.3507C27.0764 12.5329 26.1871 11.5087 25.7743 10.2658M25.35 8.72641C25.5035 8.83151 25.5869 9.00973 25.5946 9.23663ZM25.5946 9.23663C25.6063 9.58822 25.662 9.9279 25.7743 10.2658ZM17.6955 15.1192C16.6201 15.1192 15.7327 16.0215 15.7327 17.1452C15.7327 18.2687 16.6199 19.1712 17.6955 19.1712C18.7712 19.1712 19.6586 18.2687 19.6584 17.1453C19.6584 16.0217 18.7711 15.1192 17.6955 15.1192ZM15.2327 17.1452C15.2327 15.7587 16.3308 14.6192 17.6955 14.6192C19.0604 14.6192 20.1584 15.7589 20.1584 17.1452M20.1584 17.1452C20.1586 18.5315 19.0604 19.6712 17.6955 19.6712C16.3306 19.6712 15.2327 18.5315 15.2327 17.1452M5.04132 17.7367C3.96586 17.7367 3.07847 18.639 3.07847 19.7627C3.07847 20.8863 3.96571 21.7887 5.04132 21.7887C6.11698 21.7887 7.00437 20.8864 7.00417 19.7628C7.00417 18.6392 6.11693 17.7367 5.04132 17.7367ZM2.57847 19.7627C2.57847 18.3762 3.67658 17.2367 5.04132 17.2367C6.40625 17.2367 7.50415 18.3764 7.50417 19.7627M7.50417 19.7627C7.50439 21.1492 6.40619 22.2887 5.04132 22.2887C3.67638 22.2887 2.57847 21.149 2.57847 19.7627M22.0506 26.3248C20.9751 26.3248 20.0877 27.2271 20.0877 28.3507C20.0877 29.4743 20.975 30.3767 22.0506 30.3767C23.126 30.3767 24.0134 29.4742 24.0134 28.3507C24.0134 27.2272 23.1262 26.3248 22.0506 26.3248ZM19.5877 28.3507C19.5877 26.9642 20.6858 25.8248 22.0506 25.8248C23.4155 25.8248 24.5134 26.9644 24.5134 28.3507C24.5134 29.737 23.4153 30.8767 22.0506 30.8767C20.6856 30.8767 19.5877 29.737 19.5877 28.3507Z" fill="#333E63"/>
</svg>
