<svg width="32" height="32" viewBox="0 0 32 32" fill="none" xmlns="http://www.w3.org/2000/svg">
<path d="M22.7207 15.4214C22.9202 16.1237 23.02 16.8899 23.02 17.6242C23.02 22.4769 18.8962 26.4356 13.8414 26.4356C8.7865 26.4356 4.62953 22.4769 4.62953 17.6242C4.62953 12.7715 8.75324 8.81277 13.8081 8.81277C14.5397 8.81277 15.2714 8.90855 15.9697 9.06817L17.2335 7.85501C16.136 7.50382 14.9721 7.31227 13.7749 7.31227C7.82208 7.31227 3 11.9415 3 17.6561C3 23.3708 7.82208 28 13.7749 28C19.7276 28 24.5497 23.3708 24.5497 17.6561C24.5497 16.4749 24.3502 15.3256 23.9511 14.2401L22.7207 15.4214ZM27.9751 7.85501C27.9085 7.5996 27.6758 7.37612 27.3765 7.31227L25.0486 6.83339L24.5497 4.5986C24.4832 4.31127 24.2837 4.11972 23.9844 4.02394C23.7183 3.96009 23.419 4.02394 23.1862 4.2155L17.2002 9.96209C17.0007 10.1536 16.9342 10.409 17.0007 10.6644L17.5328 12.995L13.9411 16.443C13.9079 16.443 13.8746 16.443 13.8414 16.443C13.143 16.443 12.6109 16.9857 12.6109 17.6242C12.6109 18.2946 13.1763 18.8055 13.8414 18.8055C14.5397 18.8055 15.0718 18.2627 15.0718 17.6242C15.0718 17.5923 15.0718 17.5604 15.0718 17.5284L18.6302 14.1124L21.0579 14.6232C21.1244 14.6232 21.1576 14.6551 21.2241 14.6551C21.4237 14.6551 21.6232 14.5913 21.7895 14.4317L27.7755 8.68507C27.9751 8.42966 28.0416 8.14233 27.9751 7.85501ZM20.9581 13.0269L19.0293 12.6438L18.6302 10.7922L23.286 6.32258L23.5853 7.69538C23.6518 7.98271 23.8846 8.20619 24.1839 8.27004L25.6139 8.55737L20.9581 13.0269ZM13.8414 13.7612C14.0409 13.7612 14.2404 13.7931 14.44 13.8251L15.8035 12.6119C15.1716 12.3884 14.5065 12.2607 13.8081 12.2607C10.7153 12.2607 8.22115 14.6551 8.22115 17.6242C8.22115 20.5933 10.7153 22.9877 13.8081 22.9877C16.9009 22.9877 19.3951 20.5933 19.3951 17.6242C19.3951 16.9857 19.2621 16.3472 19.0625 15.7725L17.7655 17.0496C17.7988 17.2411 17.8321 17.4327 17.8321 17.6242C17.8321 19.7313 16.0362 21.4553 13.8414 21.4553C11.6465 21.4553 9.85068 19.7313 9.85068 17.6242C9.81743 15.4852 11.6132 13.7612 13.8414 13.7612Z" fill="#333E63" stroke="#333E63" stroke-width="0.7"/>
</svg>
