<svg width="25" height="24" viewBox="0 0 25 24" fill="none" xmlns="http://www.w3.org/2000/svg">
<path d="M20.4817 3.25C20.0078 3.25 19.6246 3.634 19.6246 4.10717C19.6246 4.58034 20.0078 4.96434 20.4817 4.96434C21.615 4.96434 22.5365 5.81559 22.5365 6.86217V11.3202C21.5456 10.4177 20.2075 9.85962 18.7324 9.85962C16.8072 9.85962 15.1108 10.8077 14.1226 12.2382C12.9184 11.8286 11.5819 11.8286 10.3767 12.2382C9.38921 10.8077 7.69284 9.85962 5.76764 9.85962C4.2932 9.85962 2.95445 10.4176 1.96356 11.3202V6.86217C1.96432 5.81559 2.88578 4.96434 4.01906 4.96434C4.49222 4.96434 4.87623 4.58034 4.87623 4.10717C4.87623 3.634 4.49222 3.25 4.01906 3.25C1.94117 3.25 0.25 4.87 0.25 6.86217V15.1268C0.25 18.03 2.72546 20.3932 5.76822 20.3932C8.81099 20.3932 11.2864 18.0301 11.2864 15.1258C11.2864 14.6698 11.2187 14.2292 11.1039 13.8065C11.8446 13.594 12.6545 13.594 13.3951 13.8065C13.2803 14.2292 13.2126 14.6696 13.2126 15.1258C13.2126 18.0298 15.689 20.3932 18.7308 20.3932C21.773 20.3932 24.25 18.0301 24.25 15.1258V6.86119C24.25 4.87 22.5596 3.25 20.4817 3.25ZM5.76827 18.6791C3.6709 18.6791 1.9642 17.0857 1.9642 15.126C1.9642 13.1666 3.6709 11.573 5.76827 11.573C7.86584 11.573 9.57235 13.1664 9.57235 15.126C9.57235 17.0857 7.86584 18.6791 5.76827 18.6791ZM18.7321 18.6791C16.6346 18.6791 14.9281 17.0857 14.9281 15.126C14.9281 13.1666 16.6348 11.573 18.7321 11.573C20.8295 11.5732 22.5362 13.1676 22.5362 15.126C22.5362 17.0847 20.8305 18.6791 18.7321 18.6791Z" fill="#333E63"/>
<path fill-rule="evenodd" clip-rule="evenodd" d="M0 6.86217C0 4.72199 1.81326 3 4.01906 3C4.6303 3 5.12623 3.49593 5.12623 4.10717C5.12623 4.71841 4.6303 5.21434 4.01906 5.21434C3.0049 5.21434 2.2143 5.97188 2.21356 6.8622V6.8622V10.7889C3.19395 10.0514 4.42769 9.60962 5.76764 9.60962C7.7071 9.60962 9.42714 10.5322 10.4737 11.9443C11.6243 11.5933 12.8758 11.5932 14.0256 11.9443C15.0729 10.5322 16.7929 9.60962 18.7324 9.60962C20.073 9.60962 21.3062 10.0515 22.2865 10.7889V6.86217C22.2865 5.97197 21.496 5.21434 20.4817 5.21434C19.8696 5.21434 19.3746 4.71827 19.3746 4.10717C19.3746 3.49608 19.8696 3 20.4817 3C22.6876 3 24.5 4.72201 24.5 6.86119V15.1258C24.5 18.179 21.8999 20.6432 18.7308 20.6432C15.562 20.6432 12.9626 18.1788 12.9626 15.1258C12.9626 14.7336 13.0101 14.3537 13.0925 13.9878C12.541 13.8669 11.9581 13.8669 11.4065 13.9878C11.489 14.3538 11.5364 14.7338 11.5364 15.1258C11.5364 18.179 8.93798 20.6432 5.76822 20.6432C2.5985 20.6432 0 18.179 0 15.1268V6.86217ZM4.01906 3.5C2.06909 3.5 0.5 5.01802 0.5 6.86217V15.1268C0.5 17.8811 2.85242 20.1432 5.76822 20.1432C8.68399 20.1432 11.0364 17.8812 11.0364 15.1258C11.0364 14.6948 10.9724 14.2763 10.8627 13.8721L10.7981 13.6342L11.0349 13.5662C11.8207 13.3407 12.6784 13.3407 13.4641 13.5662L13.701 13.6342L13.6364 13.8721C13.5266 14.2763 13.4626 14.6946 13.4626 15.1258C13.4626 17.8809 15.816 20.1432 18.7308 20.1432C21.6461 20.1432 24 17.8811 24 15.1258V6.86119C24 5.018 22.4317 3.5 20.4817 3.5C20.146 3.5 19.8746 3.77193 19.8746 4.10717C19.8746 4.44241 20.146 4.71434 20.4817 4.71434C21.734 4.71434 22.7865 5.6592 22.7865 6.86217V11.8861L22.3681 11.5051C21.422 10.6433 20.1436 10.1096 18.7324 10.1096C16.8902 10.1096 15.2703 11.0166 14.3283 12.3803L14.2209 12.5358L14.0421 12.4749C12.8901 12.0831 11.6102 12.083 10.4571 12.4749L10.2782 12.5357L10.1709 12.3803C9.22967 11.0166 7.60987 10.1096 5.76764 10.1096C4.35712 10.1096 3.07799 10.6432 2.13192 11.5051L1.71356 11.8862V6.86217C1.71444 5.65939 2.76671 4.71434 4.01906 4.71434C4.35415 4.71434 4.62623 4.44227 4.62623 4.10717C4.62623 3.77207 4.35415 3.5 4.01906 3.5ZM5.76827 11.823C3.7926 11.823 2.2142 13.3205 2.2142 15.126C2.2142 16.9318 3.79259 18.4291 5.76827 18.4291C7.74414 18.4291 9.32235 16.9318 9.32235 15.126C9.32235 13.3203 7.74414 11.823 5.76827 11.823ZM1.7142 15.126C1.7142 13.0127 3.5492 11.323 5.76827 11.323C7.98754 11.323 9.82235 13.0125 9.82235 15.126C9.82235 17.2396 7.98754 18.9291 5.76827 18.9291C3.54921 18.9291 1.7142 17.2396 1.7142 15.126ZM18.7321 11.823C16.7565 11.823 15.1781 13.3205 15.1781 15.126C15.1781 16.9318 16.7563 18.4291 18.7321 18.4291C20.7087 18.4291 22.2862 16.9309 22.2862 15.126C22.2862 13.3214 20.7078 11.8232 18.7321 11.823ZM14.6781 15.126C14.6781 13.0127 16.5131 11.323 18.7322 11.323C20.9512 11.3232 22.7862 13.0137 22.7862 15.126C22.7862 17.2385 20.9523 18.9291 18.7321 18.9291C16.5129 18.9291 14.6781 17.2396 14.6781 15.126Z" fill="#333E63"/>
</svg>
