<svg width="24" height="24" viewBox="0 0 24 24" fill="none" xmlns="http://www.w3.org/2000/svg">
<path fill-rule="evenodd" clip-rule="evenodd" d="M22 12C22 17.5226 17.5227 21.9999 12.0001 21.9999C6.47752 21.9999 2.00023 17.5226 2.00023 12C2.00023 6.47743 6.47752 2.00014 12.0001 2.00014C17.5227 2.00014 22 6.47743 22 12ZM24 12C24 5.37257 18.6274 0 12 0C5.37258 0 0 5.37257 0 12C0 18.6274 5.37258 24 12 24C18.6274 24 24 18.6274 24 12Z" fill="#333E63"/>
<path fill-rule="evenodd" clip-rule="evenodd" d="M18.0001 8.00013C18.0001 9.10503 17.1051 10 16 10C14.8951 10 14.0001 9.10503 14.0001 8.00013C14.0001 6.89507 14.8951 6.00009 16 6.00009C17.1051 6.00009 18.0001 6.89507 18.0001 8.00013Z" fill="#333E63"/>
<path fill-rule="evenodd" clip-rule="evenodd" d="M9.99994 8.00013C9.99994 9.10503 9.10496 10 8.00006 10C6.89499 10 6 9.10503 6 8.00013C6 6.89507 6.89499 6.00009 8.00006 6.00009C9.10496 6.00009 9.99994 6.89507 9.99994 8.00013Z" fill="#333E63"/>
<path fill-rule="evenodd" clip-rule="evenodd" d="M17.0002 14.0001C17.0002 16.6298 14.6298 18.9999 12.0001 18.9999C9.37031 18.9999 6.99992 16.6296 6.99992 14.0001C6.99992 13.4478 6.55228 13 5.99998 13C5.44768 13 5.00004 13.4478 5.00004 14.0001C5.00004 17.7344 8.26571 21 11.9999 21C15.7341 21 18.9997 17.7343 18.9997 14.0001C18.9997 13.4478 18.5521 13 17.9998 13C17.4475 13 17.0002 13.4478 17.0002 14.0001Z" fill="#333E63"/>
<path fill-rule="evenodd" clip-rule="evenodd" d="M17.9998 13H5.99998C5.44768 13 5.00004 13.4478 5.00004 14.0001C5.00004 14.5524 5.4478 14.9999 6.0001 14.9999H18.0001C18.5524 14.9999 18.9997 14.5524 18.9997 14.0001C18.9997 13.4478 18.5521 13 17.9998 13Z" fill="#333E63"/>
</svg>
