<svg width="24" height="24" viewBox="0 0 24 24" fill="none" xmlns="http://www.w3.org/2000/svg">
<path fill-rule="evenodd" clip-rule="evenodd" d="M12 2.39969C6.69815 2.39969 2.39969 6.69785 2.39969 12C2.39969 17.3022 6.69784 21.6003 12 21.6003C17.3022 21.6003 21.6003 17.3022 21.6003 12C21.6003 6.69785 17.3022 2.39969 12 2.39969ZM0 12C0 5.37231 5.37231 0 12 0C18.6277 0 24 5.37231 24 12C24 18.6277 18.6277 24 12 24C5.37231 24 0 18.6277 0 12Z" fill="#333E63"/>
<path d="M18.0003 10.1999C18.0003 11.1939 17.1943 11.9999 16.2002 11.9999C15.206 11.9999 14.4002 11.1939 14.4002 10.1999C14.4002 9.20585 15.206 8.39985 16.2002 8.39985C17.1943 8.39985 18.0003 9.20585 18.0003 10.1999Z" fill="#333E63"/>
<path d="M9.59979 10.1999C9.59979 11.1939 8.794 11.9999 7.79977 11.9999C6.80574 11.9999 5.99974 11.1939 5.99974 10.1999C5.99974 9.20585 6.80574 8.39985 7.79977 8.39985C8.794 8.39985 9.59979 9.20585 9.59979 10.1999Z" fill="#333E63"/>
<path fill-rule="evenodd" clip-rule="evenodd" d="M5.99974 15.5999C5.99974 14.9372 6.53713 14.4 7.1999 14.4H16.7997C17.4625 14.4 17.9998 14.9372 17.9998 15.5999C17.9998 16.2627 17.4625 16.7999 16.7997 16.7999H7.1999C6.53713 16.7999 5.99974 16.2627 5.99974 15.5999Z" fill="#333E63"/>
</svg>
