<svg width="24" height="24" viewBox="0 0 24 24" fill="none" xmlns="http://www.w3.org/2000/svg">
<path fill-rule="evenodd" clip-rule="evenodd" d="M1 4C1 2.34314 2.34315 1 4 1H19.7218C21.3787 1 22.7218 2.34315 22.7218 4V15.0814C22.7218 16.7382 21.3787 18.0814 19.7218 18.0814H18.7803C18.3943 18.0814 18.0814 18.3943 18.0814 18.7803C18.0814 21.1848 15.1742 22.389 13.474 20.6887L11.1595 18.3743C10.972 18.1867 10.7176 18.0814 10.4524 18.0814H4C2.34315 18.0814 1 16.7382 1 15.0814V4ZM4 3C3.44771 3 3 3.44771 3 4V15.0814C3 15.6337 3.44772 16.0814 4 16.0814H10.4524C11.2481 16.0814 12.0111 16.3975 12.5737 16.9601L14.8882 19.2745C15.3285 19.7148 16.0814 19.403 16.0814 18.7803C16.0814 17.2897 17.2897 16.0814 18.7803 16.0814H19.7218C20.2741 16.0814 20.7218 15.6337 20.7218 15.0814V4C20.7218 3.44772 20.2741 3 19.7218 3H4Z" fill="#333E63"/>
</svg>
