<svg width="24" height="25" viewBox="0 0 24 25" fill="none" xmlns="http://www.w3.org/2000/svg">
<path fill-rule="evenodd" clip-rule="evenodd" d="M12.0387 9.50034L10.4137 7.23575C9.76517 6.33191 8.71879 5.7522 7.53881 5.7522C5.58422 5.7522 4 7.33612 4 9.291C4 9.55402 4.03329 9.82102 4.09712 10.095L4.11287 10.1626L4.1239 10.2311C4.4202 12.0723 5.65461 14.176 7.41471 16.0567C8.91671 17.6617 10.6204 18.9106 12.0386 19.5844C13.4567 18.9106 15.1604 17.6617 16.6623 16.0568C18.4223 14.1761 19.6564 12.0726 19.9522 10.2321L19.9637 10.1607L19.9803 10.0904C20.044 9.82002 20.0773 9.55459 20.0773 9.291C20.0773 7.33641 18.4928 5.7522 16.5391 5.7522C15.3584 5.7522 14.3121 6.33201 13.6636 7.23575L12.0387 9.50034ZM12.0387 21.7522C8.23088 20.3681 2.91827 15.3271 2.1493 10.5489C2.05501 10.1442 2 9.72432 2 9.291C2 6.23141 4.47978 3.7522 7.53881 3.7522C8.66667 3.7522 9.71413 4.09061 10.588 4.67048C11.1523 5.04492 11.6442 5.52006 12.0387 6.06976C12.4331 5.52006 12.925 5.04494 13.4893 4.67049C14.3633 4.09062 15.4109 3.7522 16.5391 3.7522C19.5976 3.7522 22.0773 6.23198 22.0773 9.291C22.0773 9.72488 22.0223 10.1447 21.9269 10.5494C21.1591 15.3271 15.8459 20.3681 12.0387 21.7522Z" fill="#333E63"/>
</svg>
