<svg width="24" height="25" viewBox="0 0 24 25" fill="none" xmlns="http://www.w3.org/2000/svg">
<path fill-rule="evenodd" clip-rule="evenodd" d="M18.4178 16.9175H4.57648C5.85329 15.1566 6.54945 13.0293 6.54945 10.8351V9.02181C6.54945 6.24224 8.71727 4.07471 11.4977 4.07471C14.2637 4.07471 16.4448 6.30257 16.4448 9.02181V10.8351C16.4448 13.0293 17.141 15.1566 18.4178 16.9175ZM2.38266 16.4514C3.7771 14.9132 4.54945 12.9113 4.54945 10.8351V9.02181C4.54945 5.13723 7.61313 2.07471 11.4977 2.07471C15.3823 2.07471 18.4448 5.21207 18.4448 9.02181V10.8351C18.4448 12.9113 19.2172 14.9132 20.6116 16.4514C21.0595 16.9004 21.1343 17.4979 20.7613 18.0206C20.5368 18.5433 20.0141 18.9175 19.4165 18.9175H3.50405C2.90651 18.9175 2.38266 18.5433 2.1593 18.0206C1.85996 17.4979 2.00963 16.9004 2.38266 16.4514ZM8.97192 20.9175C8.83094 21.1334 8.749 21.3914 8.749 21.6685C8.749 22.4282 9.36483 23.044 10.1245 23.044H12.8755C13.6352 23.044 14.251 22.4282 14.251 21.6685C14.251 21.3914 14.1691 21.1334 14.0281 20.9175C13.7826 20.5415 13.3581 20.293 12.8755 20.293H10.1245C9.64194 20.293 9.21742 20.5415 8.97192 20.9175Z" fill="#333E63"/>
</svg>
