<svg width="24" height="24" viewBox="0 0 24 24" fill="none" xmlns="http://www.w3.org/2000/svg">
<path d="M9.00003 22.006C6.43275 22.0123 3.96303 21.0229 2.11003 19.246C1.75661 18.8973 1.47639 18.4815 1.28578 18.023C1.09517 17.5645 0.998025 17.0726 1.00003 16.576V16.066C1.00375 15.1545 1.33673 14.2751 1.93762 13.5896C2.53851 12.9042 3.36684 12.459 4.27003 12.336C7.41068 11.9361 10.5894 11.9361 13.73 12.336C14.6332 12.459 15.4615 12.9042 16.0624 13.5896C16.6633 14.2751 16.9963 15.1545 17 16.066V16.576C17.002 17.0726 16.9049 17.5645 16.7143 18.023C16.5237 18.4815 16.2434 18.8973 15.89 19.246C14.037 21.0229 11.5673 22.0123 9.00003 22.006ZM9.00003 14.006C7.50522 14.0027 6.01187 14.0996 4.53003 14.296C4.10243 14.3524 3.7104 14.5637 3.42835 14.89C3.14631 15.2163 2.99389 15.6348 3.00003 16.066V16.576C2.99659 16.8041 3.03908 17.0306 3.12498 17.2419C3.21088 17.4532 3.33843 17.645 3.50003 17.806C4.9858 19.2127 6.95404 19.9966 9.00003 19.9966C11.046 19.9966 13.0143 19.2127 14.5 17.806C14.6616 17.645 14.7892 17.4532 14.8751 17.2419C14.961 17.0306 15.0035 16.8041 15 16.576V16.066C14.9988 15.6399 14.8431 15.2287 14.5617 14.9087C14.2804 14.5888 13.8925 14.3817 13.47 14.326C11.9889 14.1195 10.4955 14.0126 9.00003 14.006Z" fill="#333E63"/>
<path d="M9 10.006C8.20888 10.006 7.43552 9.77144 6.77772 9.33191C6.11993 8.89239 5.60723 8.26768 5.30448 7.53677C5.00173 6.80587 4.92252 6.0016 5.07686 5.22568C5.2312 4.44975 5.61217 3.73702 6.17158 3.17761C6.73099 2.6182 7.44372 2.23724 8.21964 2.0829C8.99557 1.92855 9.79983 2.00777 10.5307 2.31052C11.2616 2.61327 11.8864 3.12596 12.3259 3.78376C12.7654 4.44155 13 5.21491 13 6.00604C13 7.0669 12.5786 8.08432 11.8284 8.83446C11.0783 9.58461 10.0609 10.006 9 10.006ZM9 4.00604C8.60444 4.00604 8.21776 4.12333 7.88886 4.3431C7.55996 4.56286 7.30362 4.87522 7.15224 5.24067C7.00087 5.60612 6.96126 6.00826 7.03843 6.39622C7.1156 6.78418 7.30608 7.14054 7.58579 7.42025C7.86549 7.69995 8.22186 7.89044 8.60982 7.96761C8.99778 8.04478 9.39992 8.00517 9.76537 7.8538C10.1308 7.70242 10.4432 7.44608 10.6629 7.11718C10.8827 6.78828 11 6.4016 11 6.00604C11 5.4756 10.7893 4.9669 10.4142 4.59182C10.0391 4.21675 9.53044 4.00604 9 4.00604Z" fill="#333E63"/>
<path d="M19.05 21.006C18.8233 21.007 18.603 20.9308 18.4253 20.7901C18.2475 20.6494 18.1228 20.4525 18.0717 20.2316C18.0205 20.0108 18.046 19.7791 18.1438 19.5746C18.2416 19.3701 18.406 19.2048 18.61 19.106C19.3057 18.7769 19.9439 18.338 20.5 17.806C20.6612 17.6447 20.7884 17.4528 20.8743 17.2415C20.9602 17.0303 21.0029 16.804 21 16.576V16.066C20.9988 15.6399 20.8431 15.2287 20.5617 14.9087C20.2804 14.5888 19.8925 14.3817 19.47 14.326C19.2048 14.326 18.9505 14.2207 18.7629 14.0331C18.5754 13.8456 18.47 13.5913 18.47 13.326C18.47 13.0608 18.5754 12.8065 18.7629 12.6189C18.9505 12.4314 19.2048 12.326 19.47 12.326C19.5798 12.3161 19.6902 12.3161 19.8 12.326C20.6967 12.4509 21.5211 12.8861 22.13 13.556C22.7142 14.2599 23.0233 15.1517 23 16.066V16.576C23.0026 17.0703 22.9066 17.56 22.7177 18.0167C22.5289 18.4735 22.2509 18.888 21.9 19.236C21.1904 19.9251 20.3772 20.4987 19.49 20.936C19.3505 20.9922 19.2001 21.0161 19.05 21.006Z" fill="#333E63"/>
<path d="M15.33 10.006C15.0648 10.0206 14.8047 9.92925 14.6068 9.75203C14.409 9.57481 14.2896 9.32625 14.275 9.06104C14.2604 8.79582 14.3518 8.53567 14.529 8.33782C14.7063 8.13997 14.9548 8.02062 15.22 8.00604C15.7505 8.00604 16.2592 7.79532 16.6342 7.42025C17.0093 7.04518 17.22 6.53647 17.22 6.00604C17.22 5.4756 17.0093 4.96689 16.6342 4.59182C16.2592 4.21675 15.7505 4.00604 15.22 4.00604C15.0887 3.99159 14.9615 3.95142 14.8457 3.88782C14.7299 3.82422 14.6278 3.73843 14.5451 3.63536C14.3782 3.42719 14.3009 3.16125 14.33 2.89604C14.3592 2.63082 14.4925 2.38805 14.7007 2.22115C14.9089 2.05424 15.1748 1.97686 15.44 2.00604C16.4089 2.12537 17.3007 2.59488 17.9474 3.32612C18.5941 4.05736 18.951 4.99985 18.951 5.97604C18.951 6.95222 18.5941 7.89471 17.9474 8.62595C17.3007 9.35719 16.4089 9.8267 15.44 9.94603L15.33 10.006Z" fill="#333E63"/>
</svg>
