<svg width="24" height="25" viewBox="0 0 24 25" fill="none" xmlns="http://www.w3.org/2000/svg">
<path d="M12 22.0061C9.43275 22.0123 6.96303 21.023 5.11003 19.2461C4.75661 18.8974 4.47639 18.4815 4.28578 18.0231C4.09517 17.5646 3.99802 17.0726 4.00003 16.5761V16.0661C4.00375 15.1546 4.33673 14.2751 4.93762 13.5897C5.53851 12.9043 6.36684 12.4591 7.27003 12.3361C10.4107 11.9361 13.5894 11.9361 16.73 12.3361C17.6332 12.4591 18.4615 12.9043 19.0624 13.5897C19.6633 14.2751 19.9963 15.1546 20 16.0661V16.5761C20.002 17.0726 19.9049 17.5646 19.7143 18.0231C19.5237 18.4815 19.2434 18.8974 18.89 19.2461C17.037 21.023 14.5673 22.0123 12 22.0061ZM12 14.0061C10.5052 14.0028 9.01187 14.0997 7.53003 14.2961C7.10243 14.3524 6.7104 14.5638 6.42835 14.8901C6.14631 15.2164 5.99389 15.6349 6.00003 16.0661V16.5761C5.99659 16.8042 6.03908 17.0306 6.12498 17.242C6.21088 17.4533 6.33843 17.6451 6.50003 17.8061C7.9858 19.2127 9.95404 19.9966 12 19.9966C14.046 19.9966 16.0143 19.2127 17.5 17.8061C17.6616 17.6451 17.7892 17.4533 17.8751 17.242C17.961 17.0306 18.0035 16.8042 18 16.5761V16.0661C17.9988 15.64 17.8431 15.2288 17.5617 14.9088C17.2804 14.5888 16.8925 14.3818 16.47 14.3261C14.9889 14.1196 13.4955 14.0127 12 14.0061Z" fill="#333E63"/>
<path d="M12 10.0061C11.2089 10.0061 10.4355 9.77151 9.77772 9.33198C9.11993 8.89246 8.60723 8.26774 8.30448 7.53684C8.00173 6.80594 7.92252 6.00167 8.07686 5.22574C8.2312 4.44982 8.61217 3.73709 9.17158 3.17768C9.73099 2.61827 10.4437 2.23731 11.2196 2.08296C11.9956 1.92862 12.7998 2.00784 13.5307 2.31059C14.2616 2.61334 14.8864 3.12603 15.3259 3.78382C15.7654 4.44162 16 5.21498 16 6.00611C16 7.06697 15.5786 8.08439 14.8284 8.83453C14.0783 9.58468 13.0609 10.0061 12 10.0061ZM12 4.00611C11.6044 4.00611 11.2178 4.1234 10.8889 4.34317C10.56 4.56293 10.3036 4.87529 10.1522 5.24074C10.0009 5.60619 9.96126 6.00832 10.0384 6.39629C10.1156 6.78425 10.3061 7.14061 10.5858 7.42032C10.8655 7.70002 11.2219 7.89051 11.6098 7.96768C11.9978 8.04485 12.3999 8.00524 12.7654 7.85386C13.1308 7.70249 13.4432 7.44614 13.6629 7.11725C13.8827 6.78835 14 6.40167 14 6.00611C14 5.47567 13.7893 4.96696 13.4142 4.59189C13.0391 4.21682 12.5304 4.00611 12 4.00611Z" fill="#333E63"/>
</svg>
