<svg width="24" height="24" viewBox="0 0 24 24" fill="none" xmlns="http://www.w3.org/2000/svg">
<path d="M15.4205 14.0455L13.966 15.5L15.4205 16.9545C15.6286 17.1661 15.7447 17.4513 15.7435 17.7481C15.7423 18.0449 15.6239 18.3292 15.414 18.539C15.2042 18.7489 14.9199 18.8673 14.6231 18.8685C14.3263 18.8697 14.0411 18.7536 13.8295 18.5455L12.375 17.091L10.9205 18.5455C10.7089 18.7536 10.4237 18.8697 10.1269 18.8685C9.83012 18.8673 9.54584 18.7489 9.33598 18.539C9.12613 18.3292 9.0077 18.0449 9.00649 17.7481C9.00528 17.4513 9.12139 17.1661 9.32953 16.9545L10.784 15.5L9.32953 14.0455C9.22367 13.9413 9.13947 13.8172 9.08181 13.6804C9.02414 13.5435 8.99414 13.3966 8.99353 13.2481C8.99293 13.0996 9.02173 12.9524 9.07828 12.8151C9.13483 12.6778 9.21802 12.553 9.32303 12.448C9.42804 12.343 9.5528 12.2598 9.69012 12.2033C9.82744 12.1467 9.9746 12.1179 10.1231 12.1185C10.2716 12.1191 10.4185 12.1491 10.5554 12.2068C10.6922 12.2645 10.8163 12.3487 10.9205 12.4545L12.375 13.909L13.8295 12.4545C13.9337 12.3487 14.0578 12.2645 14.1946 12.2068C14.3315 12.1491 14.4784 12.1191 14.6269 12.1185C14.7754 12.1179 14.9226 12.1467 15.0599 12.2033C15.1972 12.2598 15.322 12.343 15.427 12.448C15.532 12.553 15.6152 12.6778 15.6717 12.8151C15.7283 12.9524 15.7571 13.0996 15.7565 13.2481C15.7559 13.3966 15.7259 13.5435 15.6682 13.6804C15.6105 13.8172 15.5263 13.9413 15.4205 14.0455V14.0455ZM21.75 5.75V20.75C21.7495 21.2471 21.5517 21.7237 21.2002 22.0752C20.8487 22.4267 20.3721 22.6245 19.875 22.625H4.875C4.37789 22.6245 3.90129 22.4267 3.54978 22.0752C3.19827 21.7237 3.00055 21.2471 3 20.75V5.75C3.00055 5.25289 3.19827 4.77629 3.54978 4.42478C3.90129 4.07327 4.37789 3.87555 4.875 3.875H6.75V3.125C6.75 2.82663 6.86853 2.54048 7.0795 2.3295C7.29048 2.11853 7.57663 2 7.875 2C8.17337 2 8.45952 2.11853 8.6705 2.3295C8.88147 2.54048 9 2.82663 9 3.125V3.875H15.75V3.125C15.75 2.82663 15.8685 2.54048 16.0795 2.3295C16.2905 2.11853 16.5766 2 16.875 2C17.1734 2 17.4595 2.11853 17.6705 2.3295C17.8815 2.54048 18 2.82663 18 3.125V3.875H19.875C20.3721 3.87555 20.8487 4.07327 21.2002 4.42478C21.5517 4.77629 21.7495 5.25289 21.75 5.75V5.75ZM5.25 6.125V8.375H19.5V6.125H5.25ZM19.5 20.375V10.625H5.25V20.375H19.5Z" fill="#333E63"/>
</svg>
