<svg width="24" height="24" viewBox="0 0 24 24" fill="none" xmlns="http://www.w3.org/2000/svg">
<path d="M6.91546 5C6.91546 3.89543 7.81089 3 8.91546 3H20.8779C21.9825 3 22.8779 3.89543 22.8779 5V13.3287C22.8779 14.3658 22.0371 15.2066 21 15.2066H20.4971C19.7377 15.2066 19.1221 15.8222 19.1221 16.5817C19.1221 17.8067 17.6409 18.4203 16.7746 17.554L15.013 15.7924C14.6379 15.4173 14.1292 15.2066 13.5988 15.2066H8.91546C7.81089 15.2066 6.91546 14.3112 6.91546 13.2066V5Z" fill="#333E63"/>
<path d="M1 17.1431V9.97643C1 8.87186 1.89543 7.97643 3 7.97643H4.20917C4.76145 7.97643 5.20917 8.42415 5.20917 8.97643V14.8966C5.20917 16.0012 6.1046 16.8966 7.20917 16.8966H13.5022C13.8575 16.8966 14.1456 17.1847 14.1456 17.54C14.1456 18.2506 13.5695 18.8267 12.8588 18.8267H9.39991C8.87245 18.8267 8.36634 19.0351 7.99178 19.4065L6.45915 20.926C5.68433 21.6942 4.36733 21.1454 4.36733 20.0543C4.36733 19.3763 3.81775 18.8267 3.13979 18.8267H2.68367C1.7538 18.8267 1 18.0729 1 17.1431Z" fill="#333E63"/>
</svg>
