<svg width="24" height="24" viewBox="0 0 24 24" fill="none" xmlns="http://www.w3.org/2000/svg">
<path d="M6.38684 8.34958C5.87105 7.8378 5.87105 7.00804 6.38684 6.49626C6.90262 5.98448 7.73887 5.98448 8.25465 6.49626L17.5937 15.7628C18.1095 16.2746 18.1095 17.1044 17.5937 17.6162C17.0779 18.1279 16.2417 18.1279 15.7259 17.6162L6.38684 8.34958Z" fill="#333E63"/>
<path d="M15.7453 6.38383C16.2611 5.87205 17.0974 5.87206 17.6132 6.38383C18.1289 6.89561 18.1289 7.72537 17.6132 8.23715L8.27409 17.5037C7.75831 18.0155 6.92206 18.0155 6.40628 17.5037C5.89049 16.992 5.89049 16.1622 6.40628 15.6504L15.7453 6.38383Z" fill="#333E63"/>
</svg>
