<svg width="24" height="24" viewBox="0 0 24 24" fill="none" xmlns="http://www.w3.org/2000/svg">
<path d="M9.3333 10.1667V17.5C9.3333 17.7431 9.42988 17.9763 9.60179 18.1482C9.7737 18.3201 10.0069 18.4167 10.25 18.4167C10.4931 18.4167 10.7262 18.3201 10.8981 18.1482C11.0701 17.9763 11.1666 17.7431 11.1666 17.5V10.1667C11.1666 9.92355 11.0701 9.69039 10.8981 9.51849C10.7262 9.34658 10.4931 9.25 10.25 9.25C10.0069 9.25 9.7737 9.34658 9.60179 9.51849C9.42988 9.69039 9.3333 9.92355 9.3333 10.1667Z" fill="#333E63"/>
<path d="M13.9167 9.25C14.1598 9.25 14.3929 9.34658 14.5648 9.51849C14.7368 9.69039 14.8333 9.92355 14.8333 10.1667V17.5C14.8333 17.7431 14.7368 17.9763 14.5648 18.1482C14.3929 18.3201 14.1598 18.4167 13.9167 18.4167C13.6736 18.4167 13.4404 18.3201 13.2685 18.1482C13.0966 17.9763 13 17.7431 13 17.5V10.1667C13 9.92355 13.0966 9.69039 13.2685 9.51849C13.4404 9.34658 13.6736 9.25 13.9167 9.25Z" fill="#333E63"/>
<path d="M15.75 4.66667H21.25C21.4931 4.66667 21.7263 4.76324 21.8982 4.93515C22.0701 5.10706 22.1667 5.34022 22.1667 5.58333C22.1667 5.82645 22.0701 6.05961 21.8982 6.23151C21.7263 6.40342 21.4931 6.5 21.25 6.5H20.2362L18.8575 18.9227C18.733 20.0438 18.1993 21.0797 17.3588 21.832C16.5182 22.5842 15.4297 23.0001 14.3017 23H9.865C8.73695 23.0001 7.64847 22.5842 6.8079 21.832C5.96733 21.0797 5.4337 20.0438 5.30917 18.9227L3.92867 6.5H2.91667C2.67355 6.5 2.44039 6.40342 2.26849 6.23151C2.09658 6.05961 2 5.82645 2 5.58333C2 5.34022 2.09658 5.10706 2.26849 4.93515C2.44039 4.76324 2.67355 4.66667 2.91667 4.66667H8.41667C8.41667 3.69421 8.80298 2.76158 9.49061 2.07394C10.1782 1.38631 11.1109 1 12.0833 1C13.0558 1 13.9884 1.38631 14.6761 2.07394C15.3637 2.76158 15.75 3.69421 15.75 4.66667ZM12.0833 2.83333C11.5971 2.83333 11.1308 3.02649 10.787 3.3703C10.4432 3.71412 10.25 4.18044 10.25 4.66667H13.9167C13.9167 4.18044 13.7235 3.71412 13.3797 3.3703C13.0359 3.02649 12.5696 2.83333 12.0833 2.83333ZM5.77483 6.5L7.1315 18.721C7.20639 19.3936 7.52664 20.0149 8.03096 20.4661C8.53529 20.9173 9.18828 21.1668 9.865 21.1667H14.3017C14.9781 21.1663 15.6306 20.9167 16.1346 20.4655C16.6385 20.0143 16.9585 19.3932 17.0333 18.721L18.3937 6.5H5.77483Z" fill="#333E63"/>
</svg>
