<svg width="24" height="24" viewBox="0 0 24 24" fill="none" xmlns="http://www.w3.org/2000/svg">
<path d="M8.00112 2.66921C7.64759 2.66921 7.30855 2.80964 7.05857 3.05963C6.80859 3.30961 6.66815 3.64865 6.66815 4.00218C6.66815 4.3557 6.80859 4.69475 7.05857 4.94473C7.30855 5.19471 7.64759 5.33515 8.00112 5.33515C8.35464 5.33515 8.69369 5.19471 8.94367 4.94473C9.19365 4.69475 9.33409 4.3557 9.33409 4.00218C9.33409 3.64865 9.19365 3.30961 8.94367 3.05963C8.69369 2.80964 8.35464 2.66921 8.00112 2.66921ZM4.22881 2.66921C4.50421 1.88871 5.01492 1.21285 5.69055 0.734787C6.36618 0.256724 7.17346 0 8.00112 0C8.82878 0 9.63606 0.256724 10.3117 0.734787C10.9873 1.21285 11.498 1.88871 11.7734 2.66921H22.6638C23.0173 2.66921 23.3564 2.80964 23.6063 3.05963C23.8563 3.30961 23.9968 3.64865 23.9968 4.00218C23.9968 4.3557 23.8563 4.69475 23.6063 4.94473C23.3564 5.19471 23.0173 5.33515 22.6638 5.33515H11.7734C11.498 6.11565 10.9873 6.79151 10.3117 7.26957C9.63606 7.74763 8.82878 8.00436 8.00112 8.00436C7.17346 8.00436 6.36618 7.74763 5.69055 7.26957C5.01492 6.79151 4.50421 6.11565 4.22881 5.33515H1.33627C0.982741 5.33515 0.643695 5.19471 0.393714 4.94473C0.143734 4.69475 0.0032959 4.3557 0.0032959 4.00218C0.0032959 3.64865 0.143734 3.30961 0.393714 3.05963C0.643695 2.80964 0.982741 2.66921 1.33627 2.66921H4.22881ZM15.9989 10.667C15.6454 10.667 15.3064 10.8075 15.0564 11.0574C14.8064 11.3074 14.666 11.6465 14.666 12C14.666 12.3535 14.8064 12.6926 15.0564 12.9426C15.3064 13.1925 15.6454 13.333 15.9989 13.333C16.3525 13.333 16.6915 13.1925 16.9415 12.9426C17.1915 12.6926 17.3319 12.3535 17.3319 12C17.3319 11.6465 17.1915 11.3074 16.9415 11.0574C16.6915 10.8075 16.3525 10.667 15.9989 10.667ZM12.2266 10.667C12.502 9.88653 13.0127 9.21067 13.6884 8.73261C14.364 8.25455 15.1713 7.99782 15.9989 7.99782C16.8266 7.99782 17.6339 8.25455 18.3095 8.73261C18.9851 9.21067 19.4959 9.88653 19.7712 10.667H22.6638C23.0173 10.667 23.3564 10.8075 23.6063 11.0574C23.8563 11.3074 23.9968 11.6465 23.9968 12C23.9968 12.3535 23.8563 12.6926 23.6063 12.9426C23.3564 13.1925 23.0173 13.333 22.6638 13.333H19.7712C19.4959 14.1135 18.9851 14.7893 18.3095 15.2674C17.6339 15.7455 16.8266 16.0022 15.9989 16.0022C15.1713 16.0022 14.364 15.7455 13.6884 15.2674C13.0127 14.7893 12.502 14.1135 12.2266 13.333H1.33627C0.982741 13.333 0.643695 13.1925 0.393714 12.9426C0.143734 12.6926 0.0032959 12.3535 0.0032959 12C0.0032959 11.6465 0.143734 11.3074 0.393714 11.0574C0.643695 10.8075 0.982741 10.667 1.33627 10.667H12.2266ZM8.00112 18.6649C7.64759 18.6649 7.30855 18.8053 7.05857 19.0553C6.80859 19.3052 6.66815 19.6443 6.66815 19.9978C6.66815 20.3513 6.80859 20.6904 7.05857 20.9404C7.30855 21.1904 7.64759 21.3308 8.00112 21.3308C8.35464 21.3308 8.69369 21.1904 8.94367 20.9404C9.19365 20.6904 9.33409 20.3513 9.33409 19.9978C9.33409 19.6443 9.19365 19.3052 8.94367 19.0553C8.69369 18.8053 8.35464 18.6649 8.00112 18.6649ZM4.22881 18.6649C4.50421 17.8844 5.01492 17.2085 5.69055 16.7304C6.36618 16.2524 7.17346 15.9956 8.00112 15.9956C8.82878 15.9956 9.63606 16.2524 10.3117 16.7304C10.9873 17.2085 11.498 17.8844 11.7734 18.6649H22.6638C23.0173 18.6649 23.3564 18.8053 23.6063 19.0553C23.8563 19.3052 23.9968 19.6443 23.9968 19.9978C23.9968 20.3513 23.8563 20.6904 23.6063 20.9404C23.3564 21.1904 23.0173 21.3308 22.6638 21.3308H11.7734C11.498 22.1113 10.9873 22.7872 10.3117 23.2652C9.63606 23.7433 8.82878 24 8.00112 24C7.17346 24 6.36618 23.7433 5.69055 23.2652C5.01492 22.7872 4.50421 22.1113 4.22881 21.3308H1.33627C0.982741 21.3308 0.643695 21.1904 0.393714 20.9404C0.143734 20.6904 0.0032959 20.3513 0.0032959 19.9978C0.0032959 19.6443 0.143734 19.3052 0.393714 19.0553C0.643695 18.8053 0.982741 18.6649 1.33627 18.6649H4.22881Z" fill="#333E63"/>
</svg>
