<svg width="24" height="24" viewBox="0 0 24 24" fill="none" xmlns="http://www.w3.org/2000/svg">
<path fill-rule="evenodd" clip-rule="evenodd" d="M11.7694 9.87985L9.8195 7.16234C9.30932 6.45133 8.49058 6.0001 7.56958 6.0001C6.03981 6.0001 4.80002 7.23967 4.80002 8.76965C4.80002 8.96972 4.8253 9.17816 4.87676 9.39901L4.89566 9.48011L4.90889 9.56232C5.16192 11.1346 6.23778 13.0044 7.84317 14.7199C9.13059 16.0956 10.5665 17.1665 11.7694 17.7822C12.9722 17.1665 14.408 16.0956 15.6954 14.72C17.3008 13.0045 18.3763 11.135 18.6289 9.56334L18.6426 9.47776L18.6625 9.39339C18.7136 9.1768 18.7389 8.97025 18.7389 8.76965C18.7389 7.23988 17.4988 6.0001 15.9698 6.0001C15.0482 6.0001 14.2295 6.45145 13.7194 7.16234L11.7694 9.87985ZM11.7694 20.4001C8.21551 19.1082 3.25708 14.4034 2.53937 9.94364C2.45136 9.56593 2.40002 9.17408 2.40002 8.76965C2.40002 5.91403 4.71448 3.6001 7.56958 3.6001C8.42999 3.6001 9.24026 3.81111 9.95291 4.18372C10.6752 4.56136 11.2972 5.10499 11.7694 5.76316C12.2417 5.105 12.8637 4.56138 13.586 4.18375C14.2987 3.81112 15.1091 3.6001 15.9698 3.6001C18.8244 3.6001 21.1389 5.91456 21.1389 8.76965C21.1389 9.1746 21.0875 9.56646 20.9985 9.94417C20.2818 14.4034 15.3229 19.1082 11.7694 20.4001Z" fill="#002959"/>
</svg>
