<svg width="24" height="24" viewBox="0 0 24 24" fill="none" xmlns="http://www.w3.org/2000/svg">
<path d="M14.499 3.9998H14.504H14.499ZM14.499 3.9998L11.9992 9.9992L16.9987 12.8969L9.49948 19.9982L11.9992 13.9988L6.99973 11.0991L14.499 3.9998ZM14.499 2C13.9862 2.00231 13.4933 2.19923 13.1201 2.55095L5.62387 9.64524C5.3979 9.8593 5.22507 10.1232 5.11918 10.4159C5.01328 10.7086 4.97724 11.022 5.01393 11.3311C5.08592 11.957 5.45088 12.5129 5.99583 12.8289L9.47748 14.8497L7.65166 19.2303C7.52563 19.5343 7.47647 19.8647 7.50853 20.1923C7.54059 20.5198 7.65288 20.8345 7.83547 21.1083C8.01806 21.3821 8.26532 21.6067 8.55538 21.7623C8.84543 21.9178 9.16935 21.9995 9.49848 22C9.99643 22 10.4914 21.814 10.8733 21.4521L18.3726 14.3498C18.5986 14.136 18.7715 13.8722 18.8774 13.5797C18.9833 13.2871 19.0193 12.9739 18.9825 12.6649C18.9466 12.3561 18.8392 12.0599 18.6687 11.7999C18.4983 11.5399 18.2695 11.3232 18.0006 11.1671L14.519 9.14929L16.3078 4.85672C16.4524 4.55175 16.5175 4.21515 16.497 3.87826C16.4765 3.54137 16.371 3.21515 16.1905 2.92999C16.0099 2.64483 15.7601 2.41 15.4644 2.24739C15.1686 2.08478 14.8365 1.99968 14.499 2Z" fill="#333E63"/>
</svg>
