<svg width="24" height="24" viewBox="0 0 24 24" fill="none" xmlns="http://www.w3.org/2000/svg">
<path d="M4.51251 12.7821C4.71796 8.95725 7.52573 5.83295 10.9841 5.54892V3.39031C10.9841 3.06842 11.3265 2.87906 11.5491 3.08735L15.521 6.57142C15.6922 6.7229 15.6922 7.02586 15.521 7.17734L11.5491 10.6425C11.3265 10.8508 10.9841 10.6614 10.9841 10.3395V8.25665C8.55296 8.55961 6.70394 11.0022 6.97787 13.8236C7.20044 16.1337 8.89537 18.0082 10.9841 18.2544C13.2803 18.5384 15.2966 16.9207 15.8921 14.637C16.0278 14.1165 16.474 13.7041 17.0116 13.7207V13.7207C17.8256 13.7459 18.4692 14.4459 18.2773 15.2374C17.4739 18.5509 14.7479 21 11.4977 21C7.50861 21 4.27282 17.2698 4.51251 12.7821Z" fill="#333E63"/>
</svg>
