<svg width="20" height="20" viewBox="0 0 20 20" fill="none" xmlns="http://www.w3.org/2000/svg">
<path d="M8.94149 2.55743C9.3083 1.81419 10.3681 1.81419 10.735 2.55743L12.6914 6.52167C12.8371 6.81681 13.1187 7.02138 13.4444 7.06871L17.8192 7.7044C18.6394 7.82359 18.9669 8.83156 18.3734 9.4101L15.2077 12.4958C14.9721 12.7256 14.8645 13.0566 14.9201 13.381L15.6674 17.7381C15.8076 18.555 14.9501 19.1779 14.2165 18.7922L10.3036 16.7351C10.0122 16.5819 9.66421 16.5819 9.37288 16.7351L5.45995 18.7922C4.72632 19.1779 3.86889 18.555 4.009 17.7381L4.75631 13.381C4.81194 13.0566 4.7044 12.7256 4.46871 12.4958L1.30308 9.4101C0.709565 8.83156 1.03707 7.82359 1.85729 7.7044L6.23209 7.06871C6.5578 7.02138 6.83936 6.81681 6.98502 6.52167L8.94149 2.55743Z" fill="#002959"/>
</svg>
